<svg xmlns="http://www.w3.org/2000/svg" viewBox="0 0 900 1600" width="900" height="1600" role="img" aria-label="Black Office closed graphite access doors with aquamarine edge illumination and faceted steel bird insignia">
<defs>
<linearGradient id="shell" x2="0" y2="1"><stop stop-color="#273136"/><stop offset=".15" stop-color="#111c21"/><stop offset=".75" stop-color="#080e12"/><stop offset="1" stop-color="#1d292d"/></linearGradient>
<linearGradient id="left" x2="1" y2="0"><stop stop-color="#05090b"/><stop offset=".24" stop-color="#263135"/><stop offset=".74" stop-color="#111c21"/><stop offset="1" stop-color="#010507"/></linearGradient>
<linearGradient id="right" x2="1" y2="0"><stop stop-color="#010507"/><stop offset=".26" stop-color="#111c21"/><stop offset=".76" stop-color="#263135"/><stop offset="1" stop-color="#05090b"/></linearGradient>
<linearGradient id="edge"><stop stop-color="#124438"/><stop offset=".5" stop-color="#8efdd1"/><stop offset="1" stop-color="#10463c"/></linearGradient>
<linearGradient id="insignia" x2=".25" y2="1"><stop stop-color="#697879"/><stop offset=".37" stop-color="#283b3d"/><stop offset=".65" stop-color="#122322"/><stop offset="1" stop-color="#62bd94"/></linearGradient>
<radialGradient id="dark"><stop offset=".46" stop-color="#000" stop-opacity="0"/><stop offset="1" stop-color="#000" stop-opacity=".75"/></radialGradient>
<filter id="glow" x="-100%" y="-100%" width="300%" height="300%"><feGaussianBlur stdDeviation="10"/></filter>
<pattern id="grain" width="46" height="54" patternUnits="userSpaceOnUse"><path d="M0 0H46M0 0V54" fill="none" stroke="#b5cad0" stroke-opacity=".03"/></pattern>
</defs>
<rect width="900" height="1600" fill="#030608"/>
<rect x="18" y="16" width="864" height="1568" rx="22" fill="url(#shell)" stroke="#56676b" stroke-width="17"/>
<rect x="75" y="88" width="750" height="1424" rx="10" fill="#071014" stroke="#415357" stroke-width="10"/>
<path d="M96 110H450V1490H96Z" fill="url(#left)" stroke="#566366" stroke-width="7"/>
<path d="M450 110H804V1490H450Z" fill="url(#right)" stroke="#566366" stroke-width="7"/>
<rect x="94" y="109" width="711" height="1382" fill="url(#grain)"/>
<path d="M450 120V1480" stroke="#020507" stroke-width="22"/>
<path d="M444 121V1479" stroke="url(#edge)" stroke-width="2" stroke-opacity=".64"/>
<path d="M110 155H790M110 1450H790" stroke="#99afb0" stroke-opacity=".20" stroke-width="9"/>
<path d="M136 182L360 182L410 228M764 182H540L490 228" fill="none" stroke="#889b9a" stroke-opacity=".26" stroke-width="11"/>
<path d="M125 1413H347L405 1352M775 1413H553L495 1352" fill="none" stroke="#889b9a" stroke-opacity=".25" stroke-width="11"/>
<path d="M112 220H355L400 256M788 220H545L500 256" fill="none" stroke="#54696b" stroke-opacity=".13" stroke-width="6"/><path d="M112 390H355L400 426M788 390H545L500 426" fill="none" stroke="#54696b" stroke-opacity=".13" stroke-width="6"/><path d="M112 560H355L400 596M788 560H545L500 596" fill="none" stroke="#54696b" stroke-opacity=".13" stroke-width="6"/><path d="M112 730H355L400 766M788 730H545L500 766" fill="none" stroke="#54696b" stroke-opacity=".13" stroke-width="6"/><path d="M112 900H355L400 936M788 900H545L500 936" fill="none" stroke="#54696b" stroke-opacity=".13" stroke-width="6"/><path d="M112 1070H355L400 1106M788 1070H545L500 1106" fill="none" stroke="#54696b" stroke-opacity=".13" stroke-width="6"/><path d="M112 1240H355L400 1276M788 1240H545L500 1276" fill="none" stroke="#54696b" stroke-opacity=".13" stroke-width="6"/><path d="M112 1410H355L400 1446M788 1410H545L500 1446" fill="none" stroke="#54696b" stroke-opacity=".13" stroke-width="6"/><circle cx="72" cy="190" r="7" fill="#758083" stroke="#10191b" stroke-width="5"/><circle cx="828" cy="190" r="7" fill="#758083" stroke="#10191b" stroke-width="5"/><circle cx="72" cy="311" r="7" fill="#758083" stroke="#10191b" stroke-width="5"/><circle cx="828" cy="311" r="7" fill="#758083" stroke="#10191b" stroke-width="5"/><circle cx="72" cy="432" r="7" fill="#758083" stroke="#10191b" stroke-width="5"/><circle cx="828" cy="432" r="7" fill="#758083" stroke="#10191b" stroke-width="5"/><circle cx="72" cy="553" r="7" fill="#758083" stroke="#10191b" stroke-width="5"/><circle cx="828" cy="553" r="7" fill="#758083" stroke="#10191b" stroke-width="5"/><circle cx="72" cy="674" r="7" fill="#758083" stroke="#10191b" stroke-width="5"/><circle cx="828" cy="674" r="7" fill="#758083" stroke="#10191b" stroke-width="5"/><circle cx="72" cy="795" r="7" fill="#758083" stroke="#10191b" stroke-width="5"/><circle cx="828" cy="795" r="7" fill="#758083" stroke="#10191b" stroke-width="5"/><circle cx="72" cy="916" r="7" fill="#758083" stroke="#10191b" stroke-width="5"/><circle cx="828" cy="916" r="7" fill="#758083" stroke="#10191b" stroke-width="5"/><circle cx="72" cy="1037" r="7" fill="#758083" stroke="#10191b" stroke-width="5"/><circle cx="828" cy="1037" r="7" fill="#758083" stroke="#10191b" stroke-width="5"/><circle cx="72" cy="1158" r="7" fill="#758083" stroke="#10191b" stroke-width="5"/><circle cx="828" cy="1158" r="7" fill="#758083" stroke="#10191b" stroke-width="5"/><circle cx="72" cy="1279" r="7" fill="#758083" stroke="#10191b" stroke-width="5"/><circle cx="828" cy="1279" r="7" fill="#758083" stroke="#10191b" stroke-width="5"/><circle cx="72" cy="1400" r="7" fill="#758083" stroke="#10191b" stroke-width="5"/><circle cx="828" cy="1400" r="7" fill="#758083" stroke="#10191b" stroke-width="5"/><path d="M23 160h25M852 160h25" stroke="#4ff1b6" stroke-width="9" stroke-opacity=".47"/><path d="M23 368h25M852 368h25" stroke="#4ff1b6" stroke-width="9" stroke-opacity=".47"/><path d="M23 576h25M852 576h25" stroke="#4ff1b6" stroke-width="9" stroke-opacity=".47"/><path d="M23 784h25M852 784h25" stroke="#4ff1b6" stroke-width="9" stroke-opacity=".47"/><path d="M23 992h25M852 992h25" stroke="#4ff1b6" stroke-width="9" stroke-opacity=".47"/><path d="M23 1200h25M852 1200h25" stroke="#4ff1b6" stroke-width="9" stroke-opacity=".47"/><path d="M23 1408h25M852 1408h25" stroke="#4ff1b6" stroke-width="9" stroke-opacity=".47"/>
<rect x="44" y="302" width="11" height="979" rx="5" fill="#3deaaf" opacity=".58"/>
<rect x="845" y="302" width="11" height="979" rx="5" fill="#3deaaf" opacity=".58"/>
<rect x="36" y="300" width="23" height="980" rx="8" fill="#28f5b1" opacity=".20" filter="url(#glow)"/>
<rect x="841" y="300" width="23" height="980" rx="8" fill="#28f5b1" opacity=".20" filter="url(#glow)"/>
<g transform="translate(0 36)" stroke="#071615" stroke-width="9" stroke-linejoin="bevel">
<path d="M233 633L444 552L575 603L668 644L524 674L450 729L386 695L310 696Z" fill="url(#insignia)"/>
<path d="M246 632L434 566L421 676L369 692L301 685Z" fill="#253b3a"/>
<path d="M461 574L562 605L668 642L525 662L456 713Z" fill="#3d5c58"/>
<path d="M449 730L399 833L388 709Z" fill="#254c3a"/>
<path d="M450 729L501 833L510 699Z" fill="#376e50"/>
<path d="M513 650L586 624L670 646L589 675L536 690Z" fill="#83968c"/>
<path d="M282 630L388 588L380 663Z" fill="#536c66"/>
<path d="M370 694L442 729L399 833Z" fill="#18372e"/>
<path d="M459 729L534 688L501 833Z" fill="#305340"/>
<path d="M238 635L387 686L442 725M670 645L535 688L458 725" fill="none" stroke="#57ffb7" stroke-opacity=".34" stroke-width="5"/>
</g>
<path d="M450 800V1340" stroke="#020608" stroke-width="14"/>
<path d="M450 320V540" stroke="#020608" stroke-width="14"/>
<rect x="92" y="124" width="20" height="1308" fill="#010506" opacity=".45"/>
<rect x="788" y="124" width="20" height="1308" fill="#010506" opacity=".45"/>
<rect width="900" height="1600" fill="url(#dark)"/>
</svg>